<svg viewBox="0 0 45 45" fill="none" xmlns="http://www.w3.org/2000/svg">
<path d="M22.5 3.75C32.8387 3.75 41.25 12.1613 41.25 22.5C41.25 32.8387 32.8387 41.25 22.5 41.25C12.1613 41.25 3.75 32.8387 3.75 22.5C3.75 12.1613 12.1613 3.75 22.5 3.75ZM22.5 0C10.0744 0 0 10.0744 0 22.5C0 34.9256 10.0744 45 22.5 45C34.9256 45 45 34.9256 45 22.5C45 10.0744 34.9256 0 22.5 0ZM22.5 23.5312L11.265 14.9625H33.7331L22.5 23.5312ZM22.5 25.9462L11.25 17.2669V29.9625H33.75V17.2669L22.5 25.9462Z" fill="currentColor"/>
</svg>
