<svg width="27" height="27" viewBox="0 0 27 27" fill="none" xmlns="http://www.w3.org/2000/svg">
<path d="M13.5 2.25C19.7033 2.25 24.75 7.29675 24.75 13.5C24.75 19.7033 19.7033 24.75 13.5 24.75C7.29675 24.75 2.25 19.7033 2.25 13.5C2.25 7.29675 7.29675 2.25 13.5 2.25ZM13.5 0C6.04463 0 0 6.04463 0 13.5C0 20.9554 6.04463 27 13.5 27C20.9554 27 27 20.9554 27 13.5C27 6.04463 20.9554 0 13.5 0ZM13.5 14.1187L6.759 8.9775H20.2399L13.5 14.1187ZM13.5 15.5677L6.75 10.3601V17.9775H20.25V10.3601L13.5 15.5677Z" fill="#E8E8E8"/>
</svg>
