<svg viewBox="0 0 45 45" fill="none" xmlns="http://www.w3.org/2000/svg">
<path d="M22.5 3.75C32.8387 3.75 41.25 12.1613 41.25 22.5C41.25 32.8387 32.8387 41.25 22.5 41.25C12.1613 41.25 3.75 32.8387 3.75 22.5C3.75 12.1613 12.1613 3.75 22.5 3.75ZM22.5 0C10.0744 0 0 10.0744 0 22.5C0 34.9256 10.0744 45 22.5 45C34.9256 45 45 34.9256 45 22.5C45 10.0744 34.9256 0 22.5 0ZM18.75 15C18.75 16.0444 17.9119 16.89 16.875 16.89C15.8381 16.89 15 16.0462 15 15C15 13.9556 15.8381 13.11 16.875 13.11C17.9119 13.11 18.75 13.9575 18.75 15ZM18.75 18.75H15V30H18.75V18.75ZM24.375 18.75H20.625V30H24.375V24.6356C24.375 21.4069 28.1287 21.1087 28.1287 24.6356V30H31.875V23.7019C31.875 17.5444 26.01 17.7694 24.375 20.7994V18.75Z" fill="currentColor"/>
</svg>
