<svg width="27" height="27" viewBox="0 0 27 27" fill="none" xmlns="http://www.w3.org/2000/svg">
<path d="M13.5 2.25C19.7033 2.25 24.75 7.29675 24.75 13.5C24.75 19.7033 19.7033 24.75 13.5 24.75C7.29675 24.75 2.25 19.7033 2.25 13.5C2.25 7.29675 7.29675 2.25 13.5 2.25ZM13.5 0C6.04463 0 0 6.04463 0 13.5C0 20.9554 6.04463 27 13.5 27C20.9554 27 27 20.9554 27 13.5C27 6.04463 20.9554 0 13.5 0ZM11.25 9C11.25 9.62663 10.7471 10.134 10.125 10.134C9.50288 10.134 9 9.62775 9 9C9 8.37337 9.50288 7.866 10.125 7.866C10.7471 7.866 11.25 8.3745 11.25 9ZM11.25 11.25H9V18H11.25V11.25ZM14.625 11.25H12.375V18H14.625V14.7814C14.625 12.8441 16.8773 12.6652 16.8773 14.7814V18H19.125V14.2211C19.125 10.5266 15.606 10.6616 14.625 12.4796V11.25Z" fill="#E8E8E8"/>
</svg>
