<svg viewBox="0 0 24 24" fill="none" xmlns="http://www.w3.org/2000/svg">
<path d="M13.4864 16.4282C14.5842 16.5886 15.6976 16.4849 16.7369 16.1342C15.6122 18.1478 13.4807 19.503 11.042 19.503C7.43541 19.503 4.5 16.5372 4.5 12.867C4.5 10.3316 5.90023 8.13142 7.9554 7.0138C7.57146 8.02355 7.42414 9.11467 7.53348 10.2021C7.68962 11.755 8.36026 13.2111 9.43884 14.3392C10.5174 15.4673 11.9421 16.2026 13.4864 16.4282Z" stroke="currentColor"/>
<path d="M17 3.5C17.1326 3.5 17.2598 3.55268 17.3536 3.64645C17.4473 3.74021 17.5 3.86739 17.5 4C17.5 4.66304 17.7634 5.29893 18.2322 5.76777C18.7011 6.23661 19.337 6.5 20 6.5C20.1326 6.5 20.2598 6.55268 20.3536 6.64645C20.4473 6.74021 20.5 6.86739 20.5 7C20.5 7.13261 20.4473 7.25979 20.3536 7.35355C20.2598 7.44732 20.1326 7.5 20 7.5C19.337 7.5 18.7011 7.76339 18.2322 8.23223C17.7634 8.70107 17.5 9.33696 17.5 10C17.5 10.1326 17.4473 10.2598 17.3536 10.3536C17.2598 10.4473 17.1326 10.5 17 10.5C16.8674 10.5 16.7402 10.4473 16.6464 10.3536C16.5527 10.2598 16.5 10.1326 16.5 10C16.5 9.33696 16.2366 8.70107 15.7678 8.23223C15.2989 7.76339 14.663 7.5 14 7.5C13.8674 7.5 13.7402 7.44732 13.6464 7.35355C13.5527 7.25978 13.5 7.13261 13.5 7C13.5 6.86739 13.5527 6.74022 13.6464 6.64645C13.7402 6.55268 13.8674 6.5 14 6.5C14.663 6.5 15.2989 6.23661 15.7678 5.76777C16.2366 5.29893 16.5 4.66304 16.5 4C16.5 3.86739 16.5527 3.74021 16.6464 3.64645C16.7402 3.55268 16.8674 3.5 17 3.5Z" stroke="currentColor"/>
</svg>
