<svg width="16" height="16" viewBox="0 0 16 16" fill="none" xmlns="http://www.w3.org/2000/svg">
<g clip-path="url(#clip0_714_19)">
<path d="M8.00008 12.3333C9.14935 12.3333 10.2516 11.8767 11.0642 11.0641C11.8769 10.2514 12.3334 9.14923 12.3334 7.99996C12.3334 6.85069 11.8769 5.74849 11.0642 4.93583C10.2516 4.12317 9.14935 3.66663 8.00008 3.66663C6.85081 3.66663 5.74861 4.12317 4.93595 4.93583C4.12329 5.74849 3.66675 6.85069 3.66675 7.99996C3.66675 9.14923 4.12329 10.2514 4.93595 11.0641C5.74861 11.8767 6.85081 12.3333 8.00008 12.3333Z" stroke="#DBDBDB" stroke-width="0.5" stroke-linecap="round" stroke-linejoin="round"/>
<path d="M12.7599 12.76L12.6733 12.6734M12.6733 3.32671L12.7599 3.24004M3.23992 12.76L3.32659 12.6734M7.99992 1.38671V1.33337M7.99992 14.6667V14.6134M1.38659 8.00004H1.33325M14.6666 8.00004H14.6133M3.32659 3.32671L3.23992 3.24004" stroke="#DBDBDB" stroke-linecap="round" stroke-linejoin="round"/>
</g>
<defs>
<clipPath id="clip0_714_19">
<rect width="16" height="16" fill="white"/>
</clipPath>
</defs>
</svg>
