<svg viewBox="0 0 45 45" fill="none" xmlns="http://www.w3.org/2000/svg">
<path fill-rule="evenodd" clip-rule="evenodd" d="M22.5 0C10.0744 0 0 10.0744 0 22.5C0 34.9256 10.0744 45 22.5 45C34.9256 45 45 34.9256 45 22.5C45 10.0744 34.9256 0 22.5 0ZM22.5 3.75C32.8387 3.75 41.25 12.1613 41.25 22.5C41.25 32.8387 32.8387 41.25 22.5 41.25C12.1613 41.25 3.75 32.8387 3.75 22.5C3.75 12.1613 12.1613 3.75 22.5 3.75ZM27.5475 31.6669C27.8494 31.8825 28.2375 31.935 28.5844 31.8037C28.9312 31.6725 29.1881 31.3762 29.2631 31.0163C30.0788 27.1875 32.055 17.4956 32.7956 14.0138C32.8519 13.7513 32.76 13.4794 32.5537 13.3031C32.3475 13.1287 32.0606 13.0781 31.8056 13.1719C27.8756 14.6269 15.7687 19.1681 10.8206 21C10.5056 21.1162 10.3013 21.4181 10.3125 21.75C10.3237 22.0819 10.5469 22.3687 10.8675 22.4644C13.0875 23.1281 16.0013 24.0525 16.0013 24.0525C16.0013 24.0525 17.3606 28.1644 18.0712 30.255C18.1594 30.5156 18.3656 30.7238 18.6356 30.7931C18.9075 30.8644 19.1944 30.7913 19.3969 30.6C20.5369 29.5238 22.2994 27.8606 22.2994 27.8606C22.2994 27.8606 25.6481 30.315 27.5475 31.6669ZM17.2256 23.5331L18.8006 28.725L19.1494 25.4363C19.1494 25.4363 25.23 19.9519 28.6969 16.8244C28.8 16.7344 28.8131 16.5806 28.7287 16.4719C28.6444 16.365 28.4925 16.3388 28.3762 16.4119C24.3581 18.9769 17.2256 23.5331 17.2256 23.5331Z" fill="#E8E8E8"/>
</svg>
