<svg  viewBox="0 0 33 33" fill="none" xmlns="http://www.w3.org/2000/svg">
<g clip-path="url(#clip0_725_6)">
<path d="M15.4206 0.0257179C15.3497 0.0321626 15.1242 0.054719 14.9212 0.0708307C10.2391 0.492958 5.85348 3.01927 3.07583 6.9022C1.5291 9.06117 0.539842 11.5101 0.16605 14.1041C0.033934 15.0096 0.0178223 15.2771 0.0178223 16.5048C0.0178223 17.7325 0.033934 17.9999 0.16605 18.9054C1.06186 25.0955 5.4668 30.2964 11.441 32.2234C12.5108 32.5682 13.6387 32.8034 14.9212 32.9452C15.4206 32.9999 17.5796 32.9999 18.0791 32.9452C20.2928 32.7003 22.1682 32.1525 24.0178 31.2083C24.3014 31.0633 24.3562 31.0246 24.3175 30.9924C24.2917 30.9731 23.0833 29.3523 21.6333 27.3931L18.9974 23.8324L15.6945 18.9441C13.8771 16.2567 12.3819 14.059 12.3691 14.059C12.3562 14.0558 12.3433 16.2277 12.3368 18.8796C12.3272 23.523 12.3239 23.7099 12.2659 23.8195C12.1822 23.9774 12.1177 24.0418 11.9824 24.1127C11.8793 24.1643 11.789 24.174 11.3025 24.174H10.745L10.5968 24.0805C10.5001 24.0193 10.4292 23.9387 10.3809 23.8453L10.3132 23.7003L10.3197 17.2395L10.3293 10.7755L10.4292 10.6498C10.4808 10.5821 10.5903 10.4951 10.6677 10.4532C10.7998 10.3888 10.8513 10.3823 11.4088 10.3823C12.0662 10.3823 12.1757 10.4081 12.3465 10.595C12.3948 10.6466 14.1832 13.3404 16.3229 16.5853C18.4625 19.8302 21.3884 24.261 22.8256 26.436L25.4357 30.3898L25.5678 30.3028C26.7375 29.5424 27.9749 28.4597 28.9545 27.3318C31.0393 24.9376 32.383 22.0182 32.8342 18.9054C32.9663 17.9999 32.9824 17.7325 32.9824 16.5048C32.9824 15.2771 32.9663 15.0096 32.8342 14.1041C31.9383 7.91401 27.5334 2.71315 21.5592 0.786191C20.5055 0.444622 19.3841 0.209391 18.1274 0.0676083C17.818 0.0353849 15.6881 -6.08495e-05 15.4206 0.0257179ZM22.1682 9.99564C22.3229 10.073 22.4485 10.2212 22.4937 10.3759C22.5194 10.4597 22.5259 12.2513 22.5194 16.2889L22.5098 22.0827L21.4883 20.5166L20.4636 18.9505V14.7389C20.4636 12.0161 20.4765 10.4854 20.4958 10.4113C20.5474 10.2309 20.6601 10.0891 20.8148 10.0053C20.9469 9.93764 20.9953 9.9312 21.5012 9.9312C21.9781 9.9312 22.0619 9.93764 22.1682 9.99564Z" fill="black"/>
<path d="M25.2744 30.4607C25.1616 30.5316 25.1262 30.58 25.2261 30.5252C25.2969 30.4833 25.413 30.3963 25.3936 30.3931C25.384 30.3931 25.3292 30.4253 25.2744 30.4607ZM25.0521 30.6057C24.994 30.6509 24.994 30.6541 25.0649 30.6186C25.1036 30.5993 25.1358 30.5767 25.1358 30.5703C25.1358 30.5445 25.1197 30.551 25.0521 30.6057ZM24.8909 30.7024C24.8329 30.7475 24.8329 30.7507 24.9038 30.7153C24.9425 30.696 24.9747 30.6734 24.9747 30.667C24.9747 30.6412 24.9586 30.6476 24.8909 30.7024ZM24.7298 30.7991C24.6718 30.8442 24.6718 30.8474 24.7427 30.812C24.7814 30.7926 24.8136 30.7701 24.8136 30.7636C24.8136 30.7379 24.7975 30.7443 24.7298 30.7991ZM24.4849 30.928C24.3625 30.9924 24.3689 31.0182 24.4914 30.957C24.5461 30.928 24.588 30.899 24.588 30.8925C24.588 30.87 24.5848 30.8732 24.4849 30.928Z" fill="black"/>
</g>
<defs>
<clipPath id="clip0_725_6">
<rect width="33" height="33" fill="white"/>
</clipPath>
</defs>
</svg>
