<svg  viewBox="0 0 38 33" fill="none" xmlns="http://www.w3.org/2000/svg">
<g clip-path="url(#clip0_725_13)">
<path d="M18.5451 19.8059C20.3709 19.8059 21.851 18.3258 21.851 16.5C21.851 14.6742 20.3709 13.1941 18.5451 13.1941C16.7194 13.1941 15.2393 14.6742 15.2393 16.5C15.2393 18.3258 16.7194 19.8059 18.5451 19.8059Z" fill="#61DAFB"/>
<path d="M18.5453 23.2731C28.3423 23.2731 36.2843 20.2407 36.2843 16.5001C36.2843 12.7594 28.3423 9.72705 18.5453 9.72705C8.74839 9.72705 0.806396 12.7594 0.806396 16.5001C0.806396 20.2407 8.74839 23.2731 18.5453 23.2731Z" stroke="#61DAFB"/>
<path d="M12.6797 19.8866C17.5782 28.371 24.1753 33.7328 27.4148 31.8624C30.6543 29.9921 29.3094 21.598 24.411 13.1136C19.5125 4.62918 12.9154 -0.732581 9.67587 1.13774C6.43638 3.00807 7.78124 11.4022 12.6797 19.8866Z" stroke="#61DAFB"/>
<path d="M12.6798 13.1135C7.78133 21.5979 6.43647 29.992 9.67597 31.8624C12.9155 33.7327 19.5126 28.3709 24.4111 19.8865C29.3095 11.4021 30.6544 3.00797 27.4149 1.13765C24.1754 -0.732678 17.5783 4.62908 12.6798 13.1135Z" stroke="#61DAFB"/>
</g>
<defs>
<clipPath id="clip0_725_13">
<rect width="37.0905" height="33" fill="white"/>
</clipPath>
</defs>
</svg>
