<svg  viewBox="0 0 45 33" fill="none" xmlns="http://www.w3.org/2000/svg">
<g clip-path="url(#clip0_725_19)">
<path d="M37.9758 18.9661C36.4407 18.9741 35.1066 19.3438 33.9894 19.8903C33.5795 19.0786 33.1696 18.3552 33.0973 17.8248C33.0169 17.2059 32.9205 16.8282 33.0169 16.0888C33.1134 15.3494 33.5474 14.2965 33.5393 14.2162C33.5313 14.1358 33.4429 13.7581 32.5588 13.75C31.6748 13.742 30.9112 13.9188 30.8228 14.1519C30.7344 14.385 30.5656 14.9154 30.4531 15.4619C30.3004 16.2656 28.685 19.1348 27.7607 20.6378C27.4634 20.051 27.2062 19.5367 27.1499 19.1268C27.0695 18.5079 26.9731 18.1302 27.0695 17.3908C27.166 16.6514 27.6 15.5985 27.592 15.5182C27.5839 15.4378 27.4955 15.0601 26.6114 15.052C25.7274 15.044 24.9638 15.2208 24.8754 15.4539C24.787 15.687 24.6906 16.2335 24.5057 16.7639C24.3209 17.2944 22.175 22.0844 21.6124 23.3221C21.3231 23.957 21.0739 24.4634 20.8971 24.809C20.8971 24.809 20.8891 24.8331 20.865 24.8733C20.7123 25.1706 20.6239 25.3314 20.6239 25.3314C20.6239 25.3314 20.6239 25.3314 20.6239 25.3394C20.5033 25.5564 20.3747 25.7573 20.3104 25.7573C20.2622 25.7573 20.1738 25.1787 20.3265 24.391C20.648 22.7274 21.4115 20.1395 21.4034 20.0511C21.4034 20.0028 21.5481 19.5528 20.9051 19.3197C20.2783 19.0866 20.0532 19.4724 19.997 19.4724C19.9407 19.4724 19.9005 19.609 19.9005 19.609C19.9005 19.609 20.5997 16.6996 18.5664 16.6996C17.2965 16.6996 15.5445 18.09 14.6765 19.3438C14.1299 19.6412 12.9646 20.2761 11.7188 20.9592C11.2446 21.2245 10.7544 21.4897 10.2963 21.7388C10.2641 21.7067 10.232 21.6665 10.1998 21.6343C7.74051 19.0062 3.19156 17.1497 3.38444 13.6214C3.45678 12.3355 3.89881 8.95997 12.1207 4.86109C18.8879 1.52573 24.2727 2.44999 25.205 4.49943C26.5391 7.4249 22.3197 12.8579 15.3275 13.6456C12.6592 13.9429 11.2607 12.9142 10.9071 12.5284C10.5374 12.1266 10.4811 12.1024 10.3445 12.1828C10.1195 12.3034 10.2641 12.665 10.3445 12.874C10.5535 13.4205 11.4134 14.385 12.8681 14.8591C14.1541 15.2771 17.2805 15.5101 21.0659 14.0474C25.3014 12.4079 28.6127 7.85086 27.6402 4.03328C26.6677 0.159442 20.2381 -1.11844 14.1541 1.04351C10.5374 2.32944 6.61533 4.35476 3.79433 6.9909C0.442894 10.1253 -0.087549 12.8499 0.129451 13.9911C0.909042 18.0418 6.49477 20.6779 8.72906 22.6309C8.61654 22.6952 8.51206 22.7515 8.42366 22.7997C7.30651 23.3543 3.04689 25.5805 1.986 27.9354C0.780449 30.6036 2.17889 32.5165 3.10315 32.7736C5.97236 33.5693 8.92195 32.1387 10.5052 29.7758C12.0885 27.413 11.8956 24.3428 11.1643 22.9363C11.1562 22.9203 11.1482 22.9042 11.1321 22.8881C11.4215 22.7193 11.7188 22.5425 12.0082 22.3737C12.5788 22.0362 13.1414 21.7227 13.6236 21.4656C13.3503 22.213 13.1494 23.1051 13.053 24.391C12.9324 25.902 13.5513 27.863 14.363 28.6346C14.7247 28.9721 15.1506 28.9802 15.4239 28.9802C16.3723 28.9802 16.7982 28.1925 17.2724 27.2603C17.8511 26.119 18.3735 24.7929 18.3735 24.7929C18.3735 24.7929 17.7225 28.3774 19.4906 28.3774C20.1336 28.3774 20.7846 27.5415 21.0739 27.1156C21.0739 27.1236 21.0739 27.1236 21.0739 27.1236C21.0739 27.1236 21.09 27.0995 21.1222 27.0433C21.1864 26.9388 21.2266 26.8745 21.2266 26.8745C21.2266 26.8745 21.2266 26.8664 21.2266 26.8584C21.4838 26.4083 22.0625 25.3876 22.9224 23.6918C24.0316 21.5057 25.1005 18.7732 25.1005 18.7732C25.1005 18.7732 25.1969 19.4402 25.5264 20.5493C25.7193 21.2003 26.1212 21.9156 26.4427 22.6068C26.1855 22.9685 26.0247 23.1694 26.0247 23.1694C26.0247 23.1694 26.0247 23.1694 26.0328 23.1774C25.8238 23.4507 25.5988 23.7481 25.3496 24.0374C24.4736 25.0822 23.4288 26.2797 23.2841 26.6253C23.1153 27.0352 23.1555 27.3326 23.477 27.5737C23.7101 27.7505 24.128 27.7746 24.554 27.7505C25.3416 27.6942 25.8961 27.5014 26.1694 27.3808C26.5954 27.2281 27.0937 26.995 27.5598 26.6494C28.4198 26.0145 28.9422 25.1063 28.8939 23.9088C28.8698 23.2498 28.6528 22.5907 28.3876 21.9719C28.468 21.8594 28.5403 21.7469 28.6207 21.6343C29.9789 19.6492 31.0318 17.4712 31.0318 17.4712C31.0318 17.4712 31.1282 18.1382 31.4578 19.2473C31.6185 19.8099 31.948 20.4208 32.2373 21.0155C30.9595 22.0523 30.1718 23.2578 29.8905 24.0454C29.3842 25.5082 29.778 26.1672 30.5255 26.3199C30.863 26.3923 31.3452 26.2315 31.6989 26.0788C32.1489 25.9341 32.6794 25.685 33.1857 25.3153C34.0457 24.6804 34.8735 23.7963 34.8253 22.5988C34.8012 22.0523 34.6565 21.5138 34.4556 20.9914C35.5406 20.5413 36.939 20.2922 38.7232 20.5011C42.5488 20.9512 43.3043 23.3382 43.1597 24.3428C43.015 25.3474 42.2113 25.894 41.9461 26.0627C41.6809 26.2315 41.5924 26.2878 41.6166 26.4083C41.6487 26.5851 41.7773 26.5771 42.0023 26.545C42.3158 26.4887 44.0116 25.7332 44.0839 23.8847C44.2045 21.5218 41.9541 18.9419 37.9758 18.9661ZM8.46384 28.9159C7.19399 30.2982 5.42585 30.8206 4.66233 30.3786C3.84255 29.9044 4.16404 27.863 5.72322 26.4003C6.67159 25.5082 7.89321 24.6804 8.70495 24.174C8.8898 24.0615 9.16306 23.9008 9.49258 23.6999C9.54884 23.6677 9.58099 23.6516 9.58099 23.6516C9.64528 23.6114 9.70958 23.5713 9.77388 23.5311C10.3445 25.6207 9.79799 27.4612 8.46384 28.9159ZM17.7064 22.6309C17.2644 23.7079 16.3401 26.4646 15.7775 26.3119C15.2953 26.1833 14.9979 24.0937 15.6811 22.0282C16.0267 20.9914 16.758 19.7537 17.184 19.2715C17.8752 18.4999 18.6387 18.2427 18.8236 18.5562C19.0566 18.9661 17.9797 21.9558 17.7064 22.6309ZM25.3335 26.2797C25.1487 26.3762 24.9719 26.4405 24.8915 26.3923C24.8353 26.3601 24.9719 26.2315 24.9719 26.2315C24.9719 26.2315 25.9283 25.2028 26.306 24.7366C26.523 24.4634 26.7802 24.1419 27.0535 23.7802C27.0535 23.8124 27.0535 23.8526 27.0535 23.8847C27.0535 25.1144 25.864 25.9422 25.3335 26.2797ZM31.2166 24.9376C31.08 24.8411 31.1041 24.5196 31.5622 23.515C31.7391 23.1212 32.157 22.4622 32.8723 21.8272C32.9526 22.0844 33.0089 22.3336 33.0009 22.5666C32.9928 24.1178 31.8837 24.6964 31.2166 24.9376Z" fill="#CD6799"/>
</g>
<defs>
<clipPath id="clip0_725_19">
<rect width="44.0268" height="33" fill="white" transform="translate(0.0905762)"/>
</clipPath>
</defs>
</svg>
