<svg  viewBox="0 0 33 33" fill="none" xmlns="http://www.w3.org/2000/svg">
<path d="M16.1535 7.47447C10.824 7.64386 9.23995 11.451 8.87695 13.5135C9.34994 12.749 10.8405 11.0715 13.035 11.0715C15.5925 11.0715 17.5395 13.926 18.7275 14.817C20.1708 15.8995 23.071 17.3288 26.8785 16.17C29.9145 15.246 31.3225 12.023 31.6305 10.494C30.162 12.4905 27.9345 13.6897 25.179 12.276C23.2815 11.3025 21.8625 7.29301 16.1535 7.47447Z" fill="#07B6D5"/>
<path d="M8.61293 16.5331C3.28343 16.7025 1.69943 20.5096 1.33643 22.5721C1.80943 21.8076 3.29993 20.1301 5.49443 20.1301C8.05193 20.1301 9.99894 22.9846 11.1869 23.8756C12.6303 24.9581 15.5305 26.3874 19.3379 25.2286C22.3739 24.3046 23.782 21.0816 24.09 19.5526C22.6214 21.5491 20.3939 22.7483 17.6384 21.3346C15.7409 20.3611 14.3219 16.3516 8.61293 16.5331Z" fill="#07B6D5"/>
</svg>
