<svg viewBox="0 0 33 33" fill="none" xmlns="http://www.w3.org/2000/svg">
<g clip-path="url(#clip0_725_9)">
<path d="M29.7773 0H3.22266C1.44283 0 0 1.44283 0 3.22266V29.7773C0 31.5572 1.44283 33 3.22266 33H29.7773C31.5572 33 33 31.5572 33 29.7773V3.22266C33 1.44283 31.5572 0 29.7773 0Z" fill="#3178C6"/>
<path d="M29.7773 0H3.22266C1.44283 0 0 1.44283 0 3.22266V29.7773C0 31.5572 1.44283 33 3.22266 33H29.7773C31.5572 33 33 31.5572 33 29.7773V3.22266C33 1.44283 31.5572 0 29.7773 0Z" fill="#3178C6"/>
<path fill-rule="evenodd" clip-rule="evenodd" d="M20.4277 26.2598V29.4863C20.9522 29.7552 21.5726 29.9568 22.2888 30.0913C23.005 30.2257 23.7598 30.293 24.5534 30.293C25.3267 30.293 26.0614 30.219 26.7574 30.0711C27.4534 29.9233 28.0637 29.6796 28.5882 29.3401C29.1128 29.0007 29.528 28.557 29.834 28.0091C30.14 27.4613 30.293 26.7841 30.293 25.9774C30.293 25.3926 30.2056 24.8801 30.0307 24.4398C29.8558 23.9995 29.6037 23.608 29.2742 23.2651C28.9447 22.9223 28.5496 22.6147 28.0889 22.3425C27.6283 22.0702 27.1088 21.8131 26.5305 21.5712C26.1068 21.3964 25.7269 21.2267 25.3906 21.062C25.0543 20.8972 24.7686 20.7292 24.5332 20.5578C24.2978 20.3864 24.1162 20.2049 23.9885 20.0133C23.8607 19.8217 23.7968 19.605 23.7968 19.3629C23.7968 19.1412 23.854 18.9412 23.9683 18.763C24.0827 18.5849 24.244 18.432 24.4525 18.3042C24.661 18.1766 24.9165 18.0774 25.2191 18.0068C25.5218 17.9362 25.8579 17.901 26.2278 17.901C26.4968 17.901 26.7809 17.9211 27.0802 17.9614C27.3794 18.0018 27.6804 18.064 27.983 18.1479C28.2856 18.232 28.5798 18.3379 28.8657 18.4656C29.1514 18.5933 29.4154 18.7412 29.6575 18.9093V15.8944C29.1666 15.7062 28.6303 15.5667 28.0486 15.476C27.4669 15.3852 26.7994 15.3398 26.0463 15.3398C25.2796 15.3398 24.5534 15.4222 23.8674 15.5869C23.1815 15.7516 22.578 16.0087 22.0568 16.3582C21.5356 16.7078 21.1237 17.1531 20.8211 17.6943C20.5185 18.2353 20.3672 18.8823 20.3672 19.6352C20.3672 20.5964 20.6446 21.4165 21.1994 22.0955C21.7542 22.7744 22.5964 23.3491 23.7262 23.8197C24.1701 24.0012 24.5836 24.1793 24.9669 24.3541C25.3503 24.5289 25.6815 24.7104 25.9605 24.8986C26.2396 25.0868 26.4598 25.2918 26.6213 25.5136C26.7827 25.7354 26.8634 25.9875 26.8634 26.2699C26.8634 26.4782 26.8129 26.6715 26.712 26.8496C26.6111 27.0278 26.4581 27.1823 26.253 27.3134C26.048 27.4445 25.7924 27.547 25.4864 27.6209C25.1804 27.6949 24.8224 27.7319 24.4121 27.7319C23.7128 27.7319 23.0201 27.6092 22.3342 27.3638C21.6483 27.1185 21.0127 26.7505 20.4277 26.2598ZM15.0034 18.31H19.1426V15.6621H7.60547V18.31H11.7244V30.0996H15.0034V18.31Z" fill="white"/>
</g>
<defs>
<clipPath id="clip0_725_9">
<rect width="33" height="33" fill="white"/>
</clipPath>
</defs>
</svg>
