<svg viewBox="0 0 34 33" fill="none" xmlns="http://www.w3.org/2000/svg">
<g clip-path="url(#clip0_725_27)">
<path d="M15.1112 0.0707578C11.8757 0.42525 8.83347 1.67564 6.37781 3.65435C5.54637 4.32467 4.18641 5.7233 3.58699 6.52252C1.87899 8.80416 0.789729 11.4081 0.377229 14.2118C0.235432 15.1592 0.190315 16.9704 0.280549 17.9178C0.551252 20.7087 1.4407 23.2868 2.8909 25.4846C5.55926 29.5387 9.63913 32.1362 14.4344 32.8452C15.3819 32.987 17.193 33.0321 18.1405 32.9419C20.9313 32.6712 23.5094 31.7817 25.7073 30.3315C29.7614 27.6631 32.3588 23.5833 33.0678 18.788C33.2096 17.8405 33.2547 16.0294 33.1645 15.0819C32.8358 11.7046 31.6305 8.71392 29.568 6.15513C28.8977 5.32369 27.4991 3.96373 26.6999 3.36431C24.4182 1.65631 21.8337 0.579938 19.0106 0.154547C18.2307 0.0385312 15.8717 -0.0130313 15.1112 0.0707578ZM20.97 15.2044C23.2065 19.1167 25.037 22.3264 25.037 22.3393C25.037 22.3522 21.3696 22.3651 16.8837 22.3651C12.3977 22.3651 8.73035 22.3522 8.73035 22.3329C8.73035 22.2813 16.8708 8.05006 16.8901 8.07584C16.8966 8.08228 18.7399 11.2921 20.97 15.2044Z" fill="black"/>
</g>
<defs>
<clipPath id="clip0_725_27">
<rect width="33" height="33" fill="white" transform="translate(0.222656)"/>
</clipPath>
</defs>
</svg>
